<?xml version="1.0" encoding="UTF-8" standalone="no"?>
<!-- Created with Inkscape (http://www.inkscape.org/) -->

<svg
   xmlns:dc="http://purl.org/dc/elements/1.1/"
   xmlns:cc="http://creativecommons.org/ns#"
   xmlns:rdf="http://www.w3.org/1999/02/22-rdf-syntax-ns#"
   xmlns:svg="http://www.w3.org/2000/svg"
   xmlns="http://www.w3.org/2000/svg"
   xmlns:sodipodi="http://sodipodi.sourceforge.net/DTD/sodipodi-0.dtd"
   xmlns:inkscape="http://www.inkscape.org/namespaces/inkscape"
   width="96"
   height="96"
   id="svg4874"
   version="1.1"
   inkscape:version="0.91+devel r"
   viewBox="0 0 96 96.000001"
   sodipodi:docname="music_placeholder.svg">
  <defs
     id="defs4876" />
  <sodipodi:namedview
     id="base"
     pagecolor="#ffffff"
     bordercolor="#666666"
     borderopacity="1.0"
     inkscape:pageopacity="0.0"
     inkscape:pageshadow="2"
     inkscape:zoom="5.6199992"
     inkscape:cx="-34.822075"
     inkscape:cy="37.277562"
     inkscape:document-units="px"
     inkscape:current-layer="g4780"
     showgrid="true"
     showborder="true"
     fit-margin-top="0"
     fit-margin-left="0"
     fit-margin-right="0"
     fit-margin-bottom="0"
     inkscape:snap-bbox="true"
     inkscape:bbox-paths="true"
     inkscape:bbox-nodes="true"
     inkscape:snap-bbox-edge-midpoints="true"
     inkscape:snap-bbox-midpoints="true"
     inkscape:object-paths="true"
     inkscape:snap-intersection-paths="true"
     inkscape:object-nodes="true"
     inkscape:snap-smooth-nodes="true"
     inkscape:snap-midpoints="true"
     inkscape:snap-object-midpoints="true"
     inkscape:snap-center="true"
     showguides="false"
     inkscape:guide-bbox="true"
     inkscape:snap-global="true">
    <inkscape:grid
       type="xygrid"
       id="grid5451"
       empspacing="8" />
    <sodipodi:guide
       orientation="1,0"
       position="8,-8.0000001"
       id="guide4063"
       inkscape:locked="false" />
    <sodipodi:guide
       orientation="1,0"
       position="4,-8.0000001"
       id="guide4065"
       inkscape:locked="false" />
    <sodipodi:guide
       orientation="0,1"
       position="-8,88.000001"
       id="guide4067"
       inkscape:locked="false" />
    <sodipodi:guide
       orientation="0,1"
       position="-8,92.000001"
       id="guide4069"
       inkscape:locked="false" />
    <sodipodi:guide
       orientation="0,1"
       position="104,4"
       id="guide4071"
       inkscape:locked="false" />
    <sodipodi:guide
       orientation="0,1"
       position="-5,8.0000001"
       id="guide4073"
       inkscape:locked="false" />
    <sodipodi:guide
       orientation="1,0"
       position="88,-8.0000001"
       id="guide4077"
       inkscape:locked="false" />
    <sodipodi:guide
       orientation="0,1"
       position="-8,84.000001"
       id="guide4074"
       inkscape:locked="false" />
    <sodipodi:guide
       orientation="1,0"
       position="12,-8.0000001"
       id="guide4076"
       inkscape:locked="false" />
    <sodipodi:guide
       orientation="1,0"
       position="84,-8.0000001"
       id="guide4080"
       inkscape:locked="false" />
    <sodipodi:guide
       position="48,-8.0000001"
       orientation="1,0"
       id="guide4170"
       inkscape:locked="false" />
    <sodipodi:guide
       position="-8,48"
       orientation="0,1"
       id="guide4172"
       inkscape:locked="false" />
    <sodipodi:guide
       position="92,-8.0000001"
       orientation="1,0"
       id="guide4760"
       inkscape:locked="false" />
  </sodipodi:namedview>
  <metadata
     id="metadata4879">
    <rdf:RDF>
      <cc:Work
         rdf:about="">
        <dc:format>image/svg+xml</dc:format>
        <dc:type
           rdf:resource="http://purl.org/dc/dcmitype/StillImage" />
        <dc:title />
      </cc:Work>
    </rdf:RDF>
  </metadata>
  <g
     inkscape:label="Layer 1"
     inkscape:groupmode="layer"
     id="layer1"
     transform="translate(67.857146,-78.50504)">
    <g
       transform="matrix(0,-1,-1,0,373.50506,516.50504)"
       id="g4845"
       style="display:inline">
      <g
         inkscape:export-ydpi="90"
         inkscape:export-xdpi="90"
         inkscape:export-filename="next01.png"
         transform="matrix(-0.9996045,0,0,1,575.94296,-611.00001)"
         id="g4778"
         inkscape:label="Layer 1">
        <g
           transform="matrix(-1,0,0,1,575.99999,611)"
           id="g4780"
           style="display:inline">
          <rect
             style="color:#000000;display:inline;overflow:visible;visibility:visible;fill:none;stroke:none;stroke-width:4;marker:none;enable-background:accumulate"
             id="rect4782"
             width="96.037979"
             height="96"
             x="-438.00244"
             y="345.36221"
             transform="scale(-1,1)" />
          <path
             style="font-style:normal;font-variant:normal;font-weight:normal;font-stretch:normal;font-size:15px;line-height:125%;font-family:Ubuntu;-inkscape-font-specification:Ubuntu;text-align:center;letter-spacing:0px;word-spacing:0px;writing-mode:lr-tb;text-anchor:middle;display:inline;fill:#cdcdcd;fill-opacity:1;stroke:none;stroke-width:0.99960458;enable-background:new"
             d="M 58.705078 18.669922 C 57.302864 18.655913 55.759078 18.678949 54.132812 18.765625 C 47.627743 19.112328 39.737337 20.411972 34.185547 24.6875 L 33.666016 25.089844 L 33.666016 38.714844 L 33.666016 64.765625 C 33.272937 64.490435 32.884773 64.213656 32.478516 63.941406 L 32.478516 63.943359 C 30.783666 62.807569 28.977071 62 26.550781 62 C 23.511671 62 21.698693 63.164512 20.601562 64.697266 C 19.504442 66.230019 19.140625 68.160828 19.140625 69.654297 C 19.140625 71.455204 19.755944 73.377106 21.089844 74.841797 C 22.423744 76.306497 24.475148 77.333934 27.423828 77.333984 C 30.753538 77.333984 33.095872 76.403742 34.419922 74.587891 C 35.462422 73.158196 36.038421 71.248596 36.244141 68.892578 L 36.244141 68.888672 L 36.244141 68.884766 C 36.272941 68.598929 36.292347 68.306387 36.310547 68.003906 C 36.338447 67.538201 36.333984 66.666016 36.333984 66.666016 L 36.333984 36.564453 C 41.123869 32.938879 48.26652 31.452168 54.304688 30.988281 C 58.783101 30.644216 62.527721 30.830765 64.332031 30.962891 L 64.332031 59.433594 C 63.938951 59.158403 63.550792 58.881622 63.144531 58.609375 C 61.449691 57.473594 59.643087 56.666016 57.216797 56.666016 C 54.177687 56.666016 52.364698 57.830528 51.267578 59.363281 C 50.170458 60.896035 49.806641 62.828797 49.806641 64.322266 C 49.806641 66.123173 50.421959 68.045075 51.755859 69.509766 C 53.089759 70.974466 55.141164 71.99995 58.089844 72 C 61.419544 72 63.761888 71.069758 65.085938 69.253906 C 66.128427 67.824212 66.704436 65.914622 66.910156 63.558594 L 66.910156 63.554688 L 66.910156 63.550781 C 66.938956 63.264944 66.960316 62.972402 66.978516 62.669922 C 67.006375 62.204896 67.000017 61.334569 67 61.332031 L 67 31.222656 L 67 19.238281 L 65.835938 19.089844 C 65.835938 19.089844 62.91172 18.711949 58.705078 18.669922 z "
             transform="matrix(0,-1,-1.0003957,0,438.00245,441.36222)"
             id="path4167" />
        </g>
      </g>
    </g>
  </g>
</svg>
