<?xml version="1.0" encoding="UTF-8" standalone="no"?>
<!-- Created with Inkscape (http://www.inkscape.org/) -->

<svg
   xmlns:dc="http://purl.org/dc/elements/1.1/"
   xmlns:cc="http://creativecommons.org/ns#"
   xmlns:rdf="http://www.w3.org/1999/02/22-rdf-syntax-ns#"
   xmlns:svg="http://www.w3.org/2000/svg"
   xmlns="http://www.w3.org/2000/svg"
   xmlns:sodipodi="http://sodipodi.sourceforge.net/DTD/sodipodi-0.dtd"
   xmlns:inkscape="http://www.inkscape.org/namespaces/inkscape"
   width="495.55963"
   height="210.18291"
   viewBox="0 0 131.11681 55.610895"
   id="svg2"
   version="1.1"
   inkscape:version="0.91+devel r"
   sodipodi:docname="music-linkmusic04c.svg">
  <defs
     id="defs4">
    <inkscape:path-effect
       is_visible="true"
       id="path-effect4204"
       effect="spiro" />
    <inkscape:path-effect
       is_visible="true"
       id="path-effect4204-7"
       effect="spiro" />
  </defs>
  <sodipodi:namedview
     id="base"
     pagecolor="#ffffff"
     bordercolor="#666666"
     borderopacity="1.0"
     inkscape:pageopacity="0.0"
     inkscape:pageshadow="2"
     inkscape:zoom="1.3351441"
     inkscape:cx="236.38137"
     inkscape:cy="124.65195"
     inkscape:document-units="px"
     inkscape:current-layer="layer1"
     showgrid="false"
     units="px"
     showborder="false"
     inkscape:snap-bbox="true"
     inkscape:bbox-paths="true"
     inkscape:bbox-nodes="true"
     inkscape:snap-bbox-edge-midpoints="true"
     inkscape:snap-bbox-midpoints="true"
     inkscape:object-paths="true"
     inkscape:snap-intersection-paths="true"
     inkscape:object-nodes="true"
     inkscape:snap-smooth-nodes="true"
     inkscape:snap-midpoints="true"
     inkscape:snap-object-midpoints="true"
     inkscape:snap-center="true"
     fit-margin-top="0"
     fit-margin-left="0"
     fit-margin-right="0"
     fit-margin-bottom="0">
    <inkscape:grid
       type="xygrid"
       id="grid4292"
       originx="-8.4056905"
       originy="-139.69994" />
  </sodipodi:namedview>
  <metadata
     id="metadata7">
    <rdf:RDF>
      <cc:Work
         rdf:about="">
        <dc:format>image/svg+xml</dc:format>
        <dc:type
           rdf:resource="http://purl.org/dc/dcmitype/StillImage" />
        <dc:title></dc:title>
      </cc:Work>
    </rdf:RDF>
  </metadata>
  <g
     inkscape:label="Layer 1"
     inkscape:groupmode="layer"
     id="layer1"
     transform="translate(-8.4056914,-101.68915)">
    <path
       style="color:#000000;font-style:normal;font-variant:normal;font-weight:normal;font-stretch:normal;font-size:medium;line-height:normal;font-family:sans-serif;text-indent:0;text-align:start;text-decoration:none;text-decoration-line:none;text-decoration-style:solid;text-decoration-color:#000000;letter-spacing:normal;word-spacing:normal;text-transform:none;direction:ltr;block-progression:tb;writing-mode:lr-tb;baseline-shift:baseline;text-anchor:start;white-space:normal;clip-rule:nonzero;display:inline;overflow:visible;visibility:visible;opacity:1;isolation:auto;mix-blend-mode:normal;color-interpolation:sRGB;color-interpolation-filters:linearRGB;solid-color:#000000;solid-opacity:1;fill:#808080;fill-opacity:1;fill-rule:nonzero;stroke:none;stroke-width:1.5875001;stroke-linecap:butt;stroke-linejoin:round;stroke-miterlimit:4;stroke-dasharray:none;stroke-dashoffset:0;stroke-opacity:1;marker:none;color-rendering:auto;image-rendering:auto;shape-rendering:auto;text-rendering:auto;enable-background:accumulate"
       d="m 100.80664,133.48828 c -1.091409,0 -2.265473,0.0374 -3.289062,0.5918 -1.023589,0.55444 -1.738281,1.72932 -1.738281,3.37695 0,1.64764 0.714692,2.82251 1.738281,3.37695 1.023589,0.55445 2.197653,0.5918 3.289062,0.5918 l 3.96875,0 3.96875,0 c 1.02526,0 1.96734,0.0949 2.53125,0.40039 0.56392,0.30546 0.9082,0.71768 0.9082,1.98047 0,1.26279 -0.34428,1.67502 -0.9082,1.98047 -0.56391,0.30545 -1.50599,0.40039 -2.53125,0.40039 l -28.046874,0 0,1.58789 28.046874,0 c 1.09141,0 2.26548,-0.0373 3.28906,-0.5918 1.02359,-0.55444 1.73828,-1.72932 1.73828,-3.37695 0,-1.64763 -0.71469,-2.82251 -1.73828,-3.37695 -1.02358,-0.55444 -2.19765,-0.5918 -3.28906,-0.5918 l -3.96875,0 -3.96875,0 c -1.025265,0 -1.969284,-0.0949 -2.533202,-0.40039 -0.563919,-0.30545 -0.906251,-0.71768 -0.90625,-1.98047 0,-1.26278 0.342331,-1.67697 0.90625,-1.98242 0.563918,-0.30545 1.507937,-0.40039 2.533202,-0.40039 l 28.83984,0 0,-1.58594 -28.83984,0 z"
       id="path4371"
       inkscape:connector-curvature="0" />
    <g
       inkscape:label="Layer 1"
       id="g4357"
       transform="matrix(-0.61789869,0,0,0.61789877,48.306793,49.473587)">
      <g
         transform="matrix(0,-1,-1,0,373.50506,516.50504)"
         id="g4359"
         style="display:inline">
        <g
           inkscape:export-ydpi="90"
           inkscape:export-xdpi="90"
           inkscape:export-filename="message03.png"
           id="g4361"
           transform="matrix(0,-1,-1,0,572.36222,615.36221)">
          <g
             transform="matrix(1.875,0,0,1.875,-366,-1652.8169)"
             id="g4363">
            <rect
               style="opacity:0.21171169;fill:none;stroke:none"
               id="rect4365"
               width="48"
               height="48"
               x="288"
               y="152"
               transform="translate(0,804.3622)" />
          </g>
          <path
             inkscape:connector-curvature="0"
             style="font-style:normal;font-variant:normal;font-weight:normal;font-stretch:normal;font-size:15px;line-height:125%;font-family:Ubuntu;-inkscape-font-specification:Ubuntu;text-align:center;letter-spacing:0px;word-spacing:0px;writing-mode:lr-tb;text-anchor:middle;display:inline;fill:#808080;fill-opacity:1;stroke:none"
             d="M 33,0 C 23,0 18,-1.9674581e-4 18,11.626953 l 0,66.746094 C 18,90.000207 23,90 33,90 l 24,0 c 10,0 15,2.07e-4 15,-11.626953 L 72,11.626953 C 72,-1.9674581e-4 67,0 57,0 L 33,0 Z m -9,9 42,0 0,63 -42,0 0,-63 z m 21,67 a 4.9999922,4.9999922 0 0 1 5,5 4.9999922,4.9999922 0 0 1 -5,5 4.9999922,4.9999922 0 0 1 -5,-5 4.9999922,4.9999922 0 0 1 5,-5 z"
             transform="translate(174,140.36222)"
             id="path4367" />
        </g>
      </g>
    </g>
    <path
       inkscape:transform-center-y="-0.00066499995"
       style="color:#000000;display:inline;overflow:visible;visibility:visible;fill:#808080;fill-opacity:1;fill-rule:nonzero;stroke:none;stroke-width:3;marker:none;enable-background:accumulate"
       d="m 35.92233,121.58604 c 0,0 2.822663,-1.20515 5.291146,-2.9415 0,-8.2e-4 0,-8.2e-4 -7.94e-4,-0.002 0,-8.2e-4 -7.94e-4,-0.002 -7.94e-4,-0.002 0,-8.5e-4 -7.94e-4,-0.002 -7.94e-4,-0.002 0,-8.2e-4 -7.93e-4,-0.002 -7.93e-4,-0.002 -2.603992,-1.79172 -5.287695,-2.93061 -5.287695,-2.93061 z"
       id="path4369"
       inkscape:connector-curvature="0"
       inkscape:transform-center-x="2.6460969"
       sodipodi:nodetypes="ccsssccc" />
    <path
       style="font-style:normal;font-variant:normal;font-weight:normal;font-stretch:normal;font-size:15px;line-height:125%;font-family:Ubuntu;-inkscape-font-specification:Ubuntu;text-align:center;letter-spacing:0px;word-spacing:0px;writing-mode:lr-tb;text-anchor:middle;display:inline;opacity:1;fill:#808080;fill-opacity:1;stroke:none"
       d="M 13.652344 33.292969 C 2.8023857 33.097 2.7988281 37.959652 2.7988281 47.292969 L 2.7988281 80.892578 C 2.7988281 90.225895 2.8003258 94.892578 13.652344 94.892578 L 42 94.892578 L 47.599609 89.292969 L 70.349609 89.292969 C 81.201627 89.292969 81.199219 84.626323 81.199219 75.292969 L 81.199219 47.292969 C 81.199219 37.959652 81.199556 33.096811 70.349609 33.292969 L 42 33.292969 L 13.652344 33.292969 z M 61.599609 39.826172 L 72.800781 39.826172 L 72.800781 45.425781 L 61.599609 45.425781 L 61.599609 39.826172 z M 16.830078 40.738281 C 17.952726 40.738281 18.968143 40.863832 19.876953 41.113281 C 20.803587 41.344853 21.480527 41.601364 21.908203 41.886719 L 21.080078 44 C 20.705863 43.768428 20.142961 43.543999 19.394531 43.330078 C 18.663918 43.098393 17.81017 42.984375 16.830078 42.984375 C 16.331124 42.984375 15.867129 43.037571 15.439453 43.144531 C 15.011781 43.251227 14.637175 43.411079 14.316406 43.625 C 13.995653 43.838921 13.737022 44.114479 13.541016 44.453125 C 13.362811 44.773856 13.273438 45.158023 13.273438 45.603516 C 13.273438 46.102451 13.372315 46.520729 13.568359 46.859375 C 13.764366 47.197983 14.040075 47.500366 14.396484 47.767578 C 14.752882 48.017027 15.163636 48.248969 15.626953 48.462891 C 16.108091 48.676812 16.632893 48.891547 17.203125 49.105469 C 18.005016 49.426237 18.735196 49.745524 19.394531 50.066406 C 20.071683 50.387137 20.651675 50.771304 21.132812 51.216797 C 21.631767 51.66229 22.015915 52.196653 22.283203 52.820312 C 22.550518 53.426209 22.683594 54.165878 22.683594 55.039062 C 22.683594 56.660631 22.086508 57.908066 20.892578 58.78125 C 19.716472 59.654434 18.050729 60.089844 15.894531 60.089844 C 15.163918 60.089844 14.486975 60.036648 13.863281 59.929688 C 13.257408 59.840491 12.713556 59.734099 12.232422 59.609375 C 11.751284 59.466622 11.332972 59.324129 10.976562 59.181641 C 10.637989 59.021237 10.369834 58.888211 10.173828 58.78125 L 10.949219 56.642578 C 11.359078 56.87415 11.982784 57.132614 12.820312 57.417969 C 13.657844 57.70321 14.682781 57.845703 15.894531 57.845703 C 18.603141 57.845703 19.957031 56.917707 19.957031 55.064453 C 19.957031 54.494198 19.831518 54.013106 19.582031 53.621094 C 19.350373 53.211242 19.03095 52.865055 18.621094 52.580078 C 18.211238 52.277187 17.737724 52.018609 17.203125 51.804688 C 16.68635 51.590766 16.134928 51.376031 15.546875 51.162109 C 14.86972 50.930538 14.226967 50.672073 13.621094 50.386719 C 13.01522 50.083752 12.490419 49.737754 12.044922 49.345703 C 11.599425 48.935851 11.243851 48.45476 10.976562 47.902344 C 10.727076 47.349928 10.601562 46.680585 10.601562 45.896484 C 10.601562 44.274916 11.152985 43.01035 12.257812 42.101562 C 13.362644 41.192737 14.887718 40.738281 16.830078 40.738281 z M 30.708984 40.978516 C 32.223668 40.978516 33.613698 41.176309 34.878906 41.568359 C 36.144114 41.94257 37.231811 42.522578 38.140625 43.306641 C 39.049435 44.072864 39.752999 45.052179 40.251953 46.246094 C 40.750889 47.422207 41 48.812249 41 50.416016 C 41 52.019783 40.750904 53.419328 40.251953 54.613281 C 39.752999 55.789395 39.049435 56.768634 38.140625 57.552734 C 37.231811 58.318996 36.144114 58.898965 34.878906 59.291016 C 33.613698 59.665227 32.223668 59.851562 30.708984 59.851562 C 29.960555 59.851562 29.13147 59.815574 28.222656 59.744141 C 27.331667 59.690471 26.521625 59.5745 25.791016 59.396484 L 25.791016 41.433594 C 26.521625 41.2552 27.331667 41.139229 28.222656 41.085938 C 29.13147 41.016394 29.960555 40.978516 30.708984 40.978516 z M 30.921875 43.251953 C 30.191262 43.251953 29.622746 43.260399 29.212891 43.279297 C 28.820855 43.297817 28.543178 43.313134 28.382812 43.332031 L 28.382812 57.5 C 28.543189 57.518898 28.820855 57.533837 29.212891 57.552734 C 29.622746 57.567852 30.191262 57.578125 30.921875 57.578125 C 33.38101 57.578125 35.217941 56.956342 36.429688 55.708984 C 37.641438 54.443787 38.246094 52.679159 38.246094 50.416016 C 38.246094 48.15291 37.641438 46.395833 36.429688 45.148438 C 35.217941 43.883241 33.38101 43.251953 30.921875 43.251953 z M 61.599609 49.160156 L 75.599609 49.160156 L 75.599609 54.759766 L 61.599609 54.759766 L 61.599609 49.160156 z M 61.599609 58.494141 L 72.800781 58.494141 L 72.800781 64.09375 L 61.599609 64.09375 L 61.599609 58.494141 z M 61.599609 67.826172 L 75.599609 67.826172 L 75.599609 73.425781 L 61.599609 73.425781 L 61.599609 67.826172 z M 61.599609 77.160156 L 72.800781 77.160156 L 72.800781 82.759766 L 61.599609 82.759766 L 61.599609 77.160156 z "
       transform="matrix(0.26458333,0,0,0.26458333,8.4056874,101.68915)"
       id="path4377" />
    <g
       id="g4379"
       transform="matrix(0,-0.46302099,-0.46302088,0,473.44636,263.10975)"
       style="fill:none">
      <rect
         transform="translate(0,804.3622)"
         y="152"
         x="288"
         height="48"
         width="48"
         id="rect4381"
         style="opacity:0.21171169;fill:none;stroke:none" />
    </g>
    <path
       style="color:#000000;display:inline;overflow:visible;visibility:visible;opacity:1;fill:#808080;fill-opacity:1;fill-rule:nonzero;stroke:none;stroke-width:1.58749998;stroke-linecap:butt;stroke-linejoin:miter;stroke-miterlimit:4;stroke-dasharray:none;stroke-dashoffset:0;stroke-opacity:1;marker:none;enable-background:accumulate"
       d="m 139.52251,136.64129 -4.06642,0 0,-4.7196 4.06642,0 0,4.7196 z m -0.82424,-0.82992 0,-1.01699 -1.01699,0 0,1.01699 1.01699,0 z m 0,-2.04277 0,-1.01647 -1.01699,0 0,1.01647 1.01699,0 z m -3.8995,3.7021 -9.50744,0 -4.01578,-2.39468 -0.19275,-0.79479 0.19275,-0.78858 4.01578,-2.40037 9.50744,0 0,3.18895 0,3.18947 z"
       id="path4178"
       inkscape:connector-curvature="0" />
  </g>
</svg>
